# xmcd
#
# Track frame offsets:
#	150
#	11250
#	26175
#	47475
#	61200
#	77400
#	94275
#	118125
#	133575
#	148800
#	173400
#	186825
#	204450
#	217050
#
# Disc length: 3108 seconds
# Revision: 0
# Processed by: cddbd v1.5.2PL0 Copyright (c) Steve Scherf et al.
# Submitted via: dBpowerAMP V12.0
#
DISCID=c10c220e
DTITLE=Lisa Cee - My Turn
DYEAR=2012
DGENRE=Blues
TTITLE0=What Good Am I
TTITLE1=Fire In the Sky
TTITLE2=Lost You
TTITLE3=Good-Bye Baby
TTITLE4=Fire
TTITLE5=My Turn
TTITLE6=I'll Take You There
TTITLE7=Right Man
TTITLE8=Stop Tryin'
TTITLE9=Bright Shiny World
TTITLE10=Cold Hearted Woman
TTITLE11=Evil Mind
TTITLE12=White Rabbit
TTITLE13=Already Free
EXTD=
EXTT0=
EXTT1=
EXTT2=
EXTT3=
EXTT4=
EXTT5=
EXTT6=
EXTT7=
EXTT8=
EXTT9=
EXTT10=
EXTT11=
EXTT12=
EXTT13=
PLAYORDER=
